# xmcd
#
# Track frame offsets:
#	183
#	10575
#	32263
#	45070
#	57930
#	71708
#	83848
#	97673
#	112953
#	124088
#	137428
#	148568
#	160988
#	174960
#	186600
#	201033
#	216203
#	228515
#	243250
#	256120
#	268990
#	282050
#	298425
#	312500
#
# Disc length: 4368 seconds
#
# Revision: 3
# Processed by: cddbd v1.5.2PL0 Copyright (c) Steve Scherf et al.
# Submitted via: audiograbber 1.83.01
#
DISCID=4f110e18
DTITLE=Muddy Waters - The Father of Chicago Blues
DYEAR=1989
DGENRE=Blues
TTITLE0=Sugar Sweet
TTITLE1=Twenty Four Hours
TTITLE2=All Aboard
TTITLE3=Hoochie Coochie
TTITLE4=I'm Ready
TTITLE5=Long Distance Call
TTITLE6=I Want You To Love Me
TTITLE7=Honey Bee
TTITLE8=Gone To Main Street
TTITLE9=She Moves Me
TTITLE10=I Can't Call Her Sugar
TTITLE11=I Can't Be Satisfied
TTITLE12=Rollin' Stone
TTITLE13=You Gonna Miss Me
TTITLE14=Baby, Please Don't Go
TTITLE15=Standing Around Crying
TTITLE16=Got My Mojo Working
TTITLE17=Still A Fool
TTITLE18=Louisanna Blues
TTITLE19=I Just Want To Make Love To You
TTITLE20=You Can't Lose What You Ain't Never Had
TTITLE21=Blow Wind Blow
TTITLE22=Forty Days And Forty Nights
TTITLE23=Walkin' Thru The Park
EXTD=
EXTT0=
EXTT1=
EXTT2=
EXTT3=
EXTT4=
EXTT5=
EXTT6=
EXTT7=
EXTT8=
EXTT9=
EXTT10=
EXTT11=
EXTT12=
EXTT13=
EXTT14=
EXTT15=
EXTT16=
EXTT17=
EXTT18=
EXTT19=
EXTT20=
EXTT21=
EXTT22=
EXTT23=
PLAYORDER=
